<?xml version="1.0" encoding="utf-8"?>
<svg
	viewBox="0 0 235 235"
	fill="currentColor"
	xmlns="http://www.w3.org/2000/svg"
>
	<path
		d="M222.174 0.0693902L223.4 0L224.904 0.0925185L225.945 0.277558L227.367 0.682333L228.605 1.21432L229.761 1.87352L230.802 2.64838L231.75 3.51575L232.352 4.19808L233.3 5.53962L233.901 6.64985C234.441 7.80635 234.788 9.02452 234.942 10.3044L235 11.5303C235 12.4015 234.907 13.2496 234.722 14.0746L234.318 15.497L158.775 224.557C157.343 227.674 155.047 230.315 152.158 232.167C149.27 234.018 145.911 235.001 142.48 235C139.391 235.006 136.353 234.214 133.66 232.701C130.967 231.187 128.711 229.003 127.11 226.361L126.359 224.892L87.593 147.384L10.4547 108.803C7.60051 107.498 5.13904 105.466 3.31652 102.911C1.49399 100.355 0.374287 97.3666 0.0693902 94.2429L0 92.5197C0 86.0433 3.48105 80.122 9.72613 76.6757L11.3452 75.8661L219.711 0.624507L220.937 0.277558L222.174 0.0693902Z"
		fill="url(#paint0_linear_76_220)"
	/>
	<defs>
		<linearGradient
			id="paint0_linear_76_220"
			x1="235.116"
			y1="-1.53935e-05"
			x2="67.0466"
			y2="183.063"
			gradientUnits="userSpaceOnUse"
		>
			<stop stop-color="#2299F8" />
			<stop offset="0.379264" stop-color="#2F92E2" />
			<stop offset="0.664732" stop-color="#257ABE" />
			<stop offset="1" stop-color="#194D76" />
		</linearGradient>
	</defs>
</svg>