<svg
    width="200"
    height="200"
    viewBox="0 0 200 200"
    fill="none"
    xmlns="http://www.w3.org/2000/svg"
>
    <path
        fillRule="evenodd"
        clipRule="evenodd"
        d="M200 100.863C200 150.186 164.901 191.239 118.521 200L119.807 193.669C162.738 184.679 195 146.312 195 100.344C195 98.4502 194.945 96.5692 194.837 94.7027H199.817C199.938 96.7404 200 98.7945 200 100.863ZM182.833 94.7027C182.944 96.4748 183 98.2618 183 100.062C183 138.447 157.389 170.817 122.415 180.832L139.914 94.7027H182.833ZM170.88 56.4684H42L63.5426 74.4188C62.3517 74.8236 60.7841 75.5693 58.8398 76.6558C55.7409 78.3876 52.3229 80.4839 48.5859 82.9449C44.9401 85.4058 41.5221 87.7756 38.332 90.0542C35.2331 92.2417 33 93.7912 31.6328 94.7027H101.792L84.4089 182.666C45.4967 175.523 16 141.257 16 100.062C16 53.6858 53.3842 16.0904 99.5 16.0904C129.742 16.0904 156.229 32.2585 170.88 56.4684ZM184.415 56.4684C168.675 25.9057 137.005 5.02846 100.5 5.02846C48.3091 5.02846 6 47.7027 6 100.344C6 146.668 38.7641 185.274 82.1941 193.873L81.0014 199.908C34.8586 190.957 0 150.016 0 100.863C0 45.1579 44.7715 -7.62939e-06 100 -7.62939e-06C139.434 -7.62939e-06 173.537 23.0225 189.818 56.4684H184.415Z"
        fill="white"
    />
</svg>